<?xml version="1.0" encoding="utf-8"?><!-- Uploaded to: SVG Repo, www.svgrepo.com, Generator: SVG Repo Mixer Tools -->
<svg width="800px" height="800px" viewBox="0 0 24 24" id="Layer_1" data-name="Layer 1" xmlns="http://www.w3.org/2000/svg"><defs><style>.cls-1{fill:none;stroke:#020202;stroke-miterlimit:10;stroke-width:1.92px;}</style></defs><polyline class="cls-1" points="12 23.5 12 17.75 12 15.32"/><polyline class="cls-1" points="12 8.68 12 6.25 12 0.5"/><polyline class="cls-1" points="15.83 2.42 12 6.25 8.17 2.42"/><polyline class="cls-1" points="8.17 21.58 12 17.75 15.83 21.58"/><polyline class="cls-1" points="21.96 17.75 16.98 14.88 14.88 13.66"/><polyline class="cls-1" points="9.13 10.34 7.02 9.13 2.04 6.25"/><polyline class="cls-1" points="5.62 3.89 7.02 9.13 1.78 10.53"/><polyline class="cls-1" points="18.38 20.11 16.98 14.88 22.22 13.47"/><polyline class="cls-1" points="2.04 17.75 7.02 14.88 9.13 13.66"/><polyline class="cls-1" points="14.88 10.34 16.98 9.13 21.96 6.25"/><polyline class="cls-1" points="18.38 3.89 16.98 9.13 22.22 10.53"/><polyline class="cls-1" points="5.62 20.11 7.02 14.88 1.78 13.47"/><polygon class="cls-1" points="14.88 10.34 14.88 13.66 12 15.32 9.13 13.66 9.13 10.34 12 8.68 14.88 10.34"/></svg>